<?xml version="1.0" encoding="utf-8"?>
<!-- Generator: Adobe Illustrator 21.0.2, SVG Export Plug-In . SVG Version: 6.00 Build 0)  -->
<svg version="1.1" id="Layer_1" xmlns="http://www.w3.org/2000/svg" xmlns:xlink="http://www.w3.org/1999/xlink" x="0px" y="0px"
	 viewBox="0 0 431.9 792" style="enable-background:new 0 0 431.9 792;" xml:space="preserve">
<style type="text/css">
	.st0{fill:url(#SVGID_1_);}
	.st1{opacity:0.39;fill:#FFFFFF;enable-background:new    ;}
	.st2{opacity:0.1;fill:#FFFFFF;enable-background:new    ;}
	.st3{opacity:0.14;fill:#FFFFFF;enable-background:new    ;}
	.st4{opacity:0.7;fill:#FFFFFF;enable-background:new    ;}
	.st5{opacity:0.53;fill:#FFFFFF;enable-background:new    ;}
	.st6{opacity:0.8;fill:#FFFFFF;enable-background:new    ;}
	.st7{opacity:0.45;fill:#FFFFFF;enable-background:new    ;}
</style>
<title>Artboard 1</title>
<linearGradient id="SVGID_1_" gradientUnits="userSpaceOnUse" x1="-6.2515" y1="4.475" x2="39.169" y2="-137.98" gradientTransform="matrix(2.9368 -1.6825 -1.6825 -2.9368 102.9136 242.1774)">
	<stop  offset="0" style="stop-color:#4D4D4D"/>
	<stop  offset="0.16" style="stop-color:#5A5A5A"/>
	<stop  offset="0.49" style="stop-color:#7E7E7E"/>
	<stop  offset="0.95" style="stop-color:#B5B5B5"/>
	<stop  offset="1" style="stop-color:#BCBCBC"/>
</linearGradient>
<polygon class="st0" points="291.4,0 89.3,156.7 0,492.1 119.8,714.8 343.8,792 431.8,599.8 393.6,157 "/>
<g>
	<polygon class="st1" points="210.1,544.6 119.8,714.8 343.8,792 	"/>
	<polygon class="st2" points="431.8,599.8 210.1,544.6 343.8,792 	"/>
	<polygon class="st3" points="393.6,157 210.1,544.6 431.8,599.8 	"/>
	<polygon class="st4" points="119.8,714.8 0,492.1 210.1,544.6 	"/>
	<polygon class="st5" points="393.6,157 89.3,156.7 210.1,544.6 	"/>
	<polygon class="st6" points="0,492.1 89.3,156.7 210.1,544.6 	"/>
	<polygon class="st7" points="393.6,157 291.4,0 89.3,156.7 	"/>
</g>
</svg>
