<?xml version="1.0" encoding="utf-8"?>
<!-- Generator: Adobe Illustrator 21.0.2, SVG Export Plug-In . SVG Version: 6.00 Build 0)  -->
<svg version="1.1" id="Layer_1" xmlns="http://www.w3.org/2000/svg" xmlns:xlink="http://www.w3.org/1999/xlink" x="0px" y="0px"
	 viewBox="0 0 490.1 792" style="enable-background:new 0 0 490.1 792;" xml:space="preserve">
<style type="text/css">
	.st0{fill:#FFFFFF;stroke:#000000;stroke-width:2;stroke-linejoin:round;stroke-miterlimit:10;}
</style>
<title>Artboard 1</title>
<g>
	<polygon class="st0" points="118.1,327 0,405.8 92.7,136.4 	"/>
	<polygon class="st0" points="223.3,791 0,405.8 155.3,552.7 	"/>
	<polygon class="st0" points="259.9,488.8 155.3,552.7 0,405.8 118.1,327 	"/>
	<polygon class="st0" points="264.3,-1 118.1,327 92.7,136.4 	"/>
	<polygon class="st0" points="423,398 306.3,369.6 259.9,488.8 358,568.6 	"/>
	<polygon class="st0" points="223.3,791 358,568.6 259.9,488.8 155.3,552.7 	"/>
	<polygon class="st0" points="454.5,595.4 358,568.6 223.3,791 	"/>
	<polygon class="st0" points="423,398 454.5,595.4 358,568.6 	"/>
	<polygon class="st0" points="264.3,-1 306.3,369.6 118.1,327 	"/>
	<polygon class="st0" points="259.9,488.8 118.1,327 306.3,369.6 	"/>
	<polygon class="st0" points="423,398 490,255.9 264.3,-1 306.3,369.6 	"/>
	<polygon class="st0" points="454.5,595.4 490,255.9 423,398 	"/>
</g>
</svg>
