<?xml version="1.0" encoding="utf-8"?>
<!-- Generator: Adobe Illustrator 21.0.2, SVG Export Plug-In . SVG Version: 6.00 Build 0)  -->
<svg version="1.1" id="Layer_1" xmlns="http://www.w3.org/2000/svg" xmlns:xlink="http://www.w3.org/1999/xlink" x="0px" y="0px"
	 viewBox="0 0 479.9 792" style="enable-background:new 0 0 479.9 792;" xml:space="preserve">
<style type="text/css">
	.st0{opacity:0.74;fill:url(#SVGID_1_);enable-background:new    ;}
	.st1{opacity:0.11;fill:#FFFFFF;enable-background:new    ;}
	.st2{opacity:0.61;fill:#FFFFFF;enable-background:new    ;}
	.st3{opacity:1.000000e-02;fill:#FFFFFF;enable-background:new    ;}
	.st4{opacity:0.41;fill:#FFFFFF;enable-background:new    ;}
	.st5{opacity:7.000000e-02;fill:#FFFFFF;enable-background:new    ;}
	.st6{opacity:0.77;fill:#FFFFFF;enable-background:new    ;}
	.st7{opacity:0.49;fill:#FFFFFF;enable-background:new    ;}
</style>
<title>Artboard 1</title>
<linearGradient id="SVGID_1_" gradientUnits="userSpaceOnUse" x1="192.5403" y1="-362.5736" x2="389.5186" y2="-362.5736" gradientTransform="matrix(2.0524 2.6914 2.6914 -2.0524 665.3587 -1178.9976)">
	<stop  offset="0" style="stop-color:#E1E1E1"/>
	<stop  offset="0.11" style="stop-color:#D2D2D2"/>
	<stop  offset="0.33" style="stop-color:#A9A9A9"/>
	<stop  offset="0.65" style="stop-color:#696969"/>
	<stop  offset="1" style="stop-color:#1A1A1A"/>
</linearGradient>
<polygon class="st0" points="44.7,513.1 254.9,792 480,606.9 451.5,78.9 194,0 0,253.5 "/>
<g>
	<polygon class="st1" points="480,606.9 286.4,581.1 254.9,792 	"/>
	<polygon class="st2" points="451.5,78.9 286.4,581.1 480,606.9 	"/>
	<polygon class="st3" points="44.7,513.1 286.4,581.1 254.9,792 	"/>
	<polygon class="st4" points="451.5,78.9 230.9,111.4 286.4,581.1 	"/>
	<polygon class="st5" points="44.7,513.1 230.9,111.4 286.4,581.1 	"/>
	<polygon class="st6" points="451.5,78.9 194,0 230.9,111.4 	"/>
	<polygon class="st7" points="44.7,513.1 0,253.5 194,0 230.9,111.4 	"/>
</g>
</svg>
